# xmcd
#
# Track frame offsets:
# 150
# 15684
# 32105
# 55708
#
# Disc length: 990 seconds
#
# Revision: 1
# Processed by: cddbd v1.5.1PL0 Copyright (c) Steve Scherf et al.
# Submitted via: Easy CD Ripper 1.45
#
DISCID=2803dc04
DTITLE=Jimi Lee - Workin' Too Hard
DYEAR=2001
DGENRE=Blues
TTITLE0=It's Alright
TTITLE1=Jimi Lee - Laundromat
TTITLE2=Jimi Lee - Workin' Too Hard
TTITLE3=Jimi Lee - Take It Easy
EXTD=Jimi Lee's Demo
EXTT0=
EXTT1=
EXTT2=
EXTT3=Good Stuff
PLAYORDER=
